#!OML:ASF F:\VICON\USERDATA\INSTALL\rory3\rory3.ASF
:FULLY-SPECIFIED
:DEGREES
261
root 2.91312 18.3518 5.44561 -173.665 -12.1016 -181.058
lowerback 11.2367 3.73076 2.5063
upperback 2.51188 5.07356 1.26708
thorax -3.54968 2.40077 -0.789408
lowerneck -21.5731 -2.63289 -7.69366
upperneck 31.7798 -3.12164 2.29636
head 14.803 -2.39593 1.56394
rclavicle 8.78628e-014 5.64548e-014
rhumerus 31.771 -9.26063 -66.6348
rradius 49.5523
rwrist 0.649446
rhand -35.8155 -7.37149
rfingers 7.12502
rthumb -8.93178 -37.1624
lclavicle 8.78628e-014 5.64548e-014
lhumerus -12.6874 -3.01874 81.3527
lradius 65.0345
lwrist 1.26171
lhand -8.73732 25.8588
lfingers 7.12502
lthumb 17.1993 55.1177
rfemur -4.7484 -5.38786 27.0103
rtibia 11.9923
rfoot -11.9492 -10.9226
rtoes 12.8055
lfemur -73.6897 -2.66499 -24.1041
ltibia 79.616
lfoot -16.0317 -8.71635
ltoes 6.76572
262
root 2.90311 18.3572 5.42444 -173.61 -11.8628 -181.128
lowerback 11.368 3.7182 2.28225
upperback 2.54571 5.03006 1.26779
thorax -3.60749 2.37842 -0.666561
lowerneck -21.5803 -2.59692 -7.69996
upperneck 31.5624 -3.04047 2.3272
head 14.7012 -2.34437 1.59457
rclavicle 4.19436e-014 -1.90833e-014
rhumerus 31.5835 -9.0464 -66.741
rradius 50.2126
rwrist 0.450728
rhand -35.6835 -6.80239
rfingers 7.12502
rthumb -8.8044 -36.5987
lclavicle 4.19436e-014 -1.90833e-014
lhumerus -11.2037 -3.16599 81.2113
lradius 65.4024
lwrist 1.88659
lhand -9.96162 25.1823
lfingers 7.12502
lthumb 16.0206 54.5399
rfemur -4.87405 -5.3751 26.8671
rtibia 12.3176
rfoot -11.9662 -10.6244
rtoes 12.9873
lfemur -73.664 -2.63404 -24.0576
ltibia 79.7504
lfoot -16.0913 -8.61735
ltoes 4.61213
263
root 2.89313 18.3624 5.40858 -173.57 -11.7337 -181.166
lowerback 11.5249 3.61747 2.24637
upperback 2.62049 4.8839 1.18688
thorax -3.61485 2.3032 -0.71755
lowerneck -21.6975 -2.52748 -7.67361
upperneck 31.3118 -2.91386 2.40645
head 14.6062 -2.25657 1.64796
rclavicle -7.0171e-014 -2.14687e-014
rhumerus 31.6181 -8.8755 -67.0767
rradius 50.7587
rwrist 0.337009
rhand -35.8854 -6.54167
rfingers 7.12502
rthumb -8.9992 -36.3297
lclavicle -7.0171e-014 -2.14687e-014
lhumerus -9.60144 -3.24429 80.8887
lradius 65.774
lwrist 2.53091
lhand -11.2224 24.922
lfingers 7.12502
lthumb 14.8063 54.3731
rfemur -5.10739 -5.36435 26.7722
rtibia 12.8139
rfoot -12.1066 -10.4606
rtoes 13.037
lfemur -73.7025 -2.70427 -23.9608
ltibia 79.8492
lfoot -16.0599 -8.56784
ltoes 3.73309
264
root 2.87926 18.366 5.39595 -173.364 -11.6823 -181.137
lowerback 11.6674 3.50727 2.32177
upperback 2.52642 4.75547 1.09849
thorax -3.78066 2.23788 -0.846031
lowerneck -21.6987 -2.4466 -7.57729
upperneck 31.0901 -2.82056 2.47969
head 14.4993 -2.18098 1.68045
rclavicle -3.97569e-016 -4.21423e-014
rhumerus 31.5134 -8.78682 -67.4446
rradius 51.275
rwrist 0.388543
rhand -35.717 -6.5332
rfingers 7.12502
rthumb -8.83671 -36.3282
lclavicle -3.97569e-016 -4.21423e-014
lhumerus -8.12239 -3.467 80.5787
lradius 66.1635
lwrist 3.00395
lhand -12.0376 24.9647
lfingers 7.12502
lthumb 14.0208 54.4718
rfemur -5.58336 -5.40277 26.7696
rtibia 13.3851
rfoot -12.2321 -10.3165
rtoes 12.5587
lfemur -73.989 -2.82302 -23.7933
ltibia 79.9646
lfoot -15.9284 -8.69809
ltoes 3.19925
265
root 2.85984 18.3667 5.38326 -172.908 -11.6185 -181.194
lowerback 11.3737 3.4245 2.21244
upperback 2.46056 4.63607 1.08534
thorax -3.69929 2.18579 -0.766251
lowerneck -21.6757 -2.36593 -7.50832
upperneck 30.8505 -2.67231 2.41691
head 14.3757 -2.10493 1.67166
rclavicle 4.85035e-014 -3.4191e-014
rhumerus 31.5533 -8.67556 -67.6992
rradius 51.7122
rwrist 0.594548
rhand -35.4 -6.75358
rfingers 7.12502
rthumb -8.53085 -36.5613
lclavicle 4.85035e-014 -3.4191e-014
lhumerus -6.56799 -3.66441 80.4039
lradius 66.5695
lwrist 3.17061
lhand -12.5011 25.278
lfingers 7.12502
lthumb 13.5741 54.8155
rfemur -6.28376 -5.5545 26.6817
rtibia 13.8804
rfoot -12.239 -10.091
rtoes 12.1489
lfemur -74.5121 -3.00207 -23.6965
ltibia 80.1077
lfoot -15.7681 -8.90922
ltoes 2.6333
266
root 2.84447 18.3656 5.36432 -172.841 -11.511 -181.108
lowerback 11.4659 3.35319 2.12803
upperback 2.47443 4.5329 1.18105
thorax -3.75268 2.1326 -0.611216
lowerneck -21.6893 -2.30835 -7.57074
upperneck 30.6471 -2.5099 2.35535
head 14.2792 -2.03992 1.68785
rclavicle -8.74653e-015 1.11319e-014
rhumerus 31.6217 -8.49759 -67.906
rradius 52.1069
rwrist 0.767115
rhand -35.1643 -6.63963
rfingers 7.12502
rthumb -8.30336 -36.4564
lclavicle -8.74653e-015 1.11319e-014
lhumerus -5.11606 -3.84969 80.2234
lradius 67.0234
lwrist 3.34634
lhand -13.0705 25.8672
lfingers 7.12502
lthumb 13.0252 55.4406
rfemur -6.58433 -5.663 26.7353
rtibia 14.4386
rfoot -12.3675 -9.85429
rtoes 11.9627
lfemur -74.6489 -3.00899 -23.515
ltibia 80.3331
lfoot -15.901 -9.13801
ltoes 2.0084
